# xmcd
#
# Track frame offsets: 
#        150
#        10860
#        22982
#        31367
#        42072
#        54817
#        64900
#        74015
#        86895
#        100380
#        111240
#        124575
#        136517
#        147987
#        160005
#
# Disc length: 2299 seconds
#
# Revision: 0
# Processed by: cddbd v1.4PL0 Copyright (c) Steve Scherf et al.
# Submitted via: ExactAudioCopy v0.90b4
#
DISCID=c408f90f
DTITLE=Scott Brannon - Faded Love And Winter Roses
DYEAR=1997
DGENRE=Bluegrass
TTITLE0=I Can Read Between The Lines
TTITLE1=Faded Love And Winter Roses
TTITLE2=Lorena
TTITLE3=The Thought Of Losing You
TTITLE4=Yes Sir, That's My Baby
TTITLE5=No One As Sweet As You
TTITLE6=Chain Gang
TTITLE7=Moonlight On My Cabin
TTITLE8=No One Now
TTITLE9=On A High High Mountain
TTITLE10=The Old Home Place
TTITLE11=That Beautiful Picture
TTITLE12=Talking To Mother
TTITLE13=How Far Is Heaven
TTITLE14=Budded On Earth
EXTD=
EXTT0=
EXTT1=
EXTT2=
EXTT3=
EXTT4=
EXTT5=
EXTT6=
EXTT7=
EXTT8=
EXTT9=
EXTT10=
EXTT11=
EXTT12=
EXTT13=
EXTT14=
PLAYORDER=
